<svg width="41" height="33" viewBox="0 0 41 33" fill="none" xmlns="http://www.w3.org/2000/svg">
<path fill-rule="evenodd" clip-rule="evenodd" d="M14.7566 0.295298C5.99201 5.74899 1.12291 12.0967 0.149259 19.3383C-1.3665 30.6117 9.03865 36.1298 14.3108 31.1718C19.583 26.2139 16.4226 19.9209 12.6051 18.2008C8.78748 16.4805 6.4529 17.0796 6.86013 14.7809C7.26737 12.4822 12.6986 6.10883 17.4702 3.14068C17.7868 2.87985 17.9073 2.37375 17.6025 1.98977C17.4019 1.73729 17.0087 1.24207 16.4226 0.504086C15.9102 -0.141248 15.4193 -0.117092 14.7566 0.295298Z" fill="#0A2A40"/>
<path fill-rule="evenodd" clip-rule="evenodd" d="M37.8354 0.295298C29.0709 5.74899 24.2018 12.0967 23.2281 19.3383C21.7124 30.6117 32.1176 36.1298 37.3897 31.1718C42.6619 26.2139 39.5016 19.9209 35.684 18.2008C31.8664 16.4805 29.5317 17.0796 29.939 14.7809C30.3463 12.4822 35.7776 6.10883 40.5492 3.14068C40.8657 2.87985 40.9862 2.37375 40.6813 1.98977C40.4808 1.73729 40.0876 1.24207 39.5016 0.504086C38.9891 -0.141248 38.4982 -0.117092 37.8354 0.295298Z" fill="#0A2A40"/>
</svg>
