<svg width="250" height="34" viewBox="0 0 250 34" fill="none" xmlns="http://www.w3.org/2000/svg">
<path d="M97.2725 13.4793H93.2929L92.7571 9.95887C92.2214 9.42315 91.5326 9.04049 90.7673 8.73436C90.002 8.42824 89.0071 8.27517 87.9356 8.27517C85.6397 8.27517 83.8029 9.11702 82.5784 10.8007C81.3539 12.4844 80.6651 14.7039 80.6651 17.3825V18.3009C80.6651 20.9795 81.2773 23.1989 82.5019 24.8826C83.7264 26.5663 85.4866 27.4082 87.7826 27.4082C88.854 27.4082 89.7724 27.2551 90.6908 26.949C91.5326 26.6428 92.2214 26.2602 92.6806 25.7245L93.2163 22.204H97.196V27.4847C96.1245 28.7092 94.747 29.7041 93.0633 30.4694C91.3796 31.2348 89.5428 31.5409 87.4764 31.5409C83.8794 31.5409 80.9712 30.3164 78.6753 27.7908C76.3793 25.3418 75.2313 22.1275 75.2313 18.2243V17.3059C75.2313 13.4028 76.3793 10.265 78.5987 7.73945C80.8947 5.21389 83.8029 3.98938 87.3999 3.98938C89.4663 3.98938 91.303 4.37204 92.9867 5.13736C94.6704 5.90268 96.048 6.8976 97.1195 8.12211V13.4793H97.2725Z" fill="url(#paint0_linear_1_149)"/>
<path d="M99.8745 21.0562C99.8745 18.0715 100.716 15.699 102.324 13.7857C104.007 11.8724 106.227 10.954 109.211 10.954C112.12 10.954 114.416 11.8724 116.099 13.7857C117.783 15.699 118.548 18.0715 118.548 21.0562V21.4389C118.548 24.4236 117.706 26.8726 116.099 28.7094C114.416 30.5462 112.196 31.5411 109.288 31.5411C106.38 31.5411 104.084 30.6227 102.4 28.7094C100.716 26.8726 99.951 24.4236 99.951 21.4389V21.0562H99.8745ZM105.232 21.4389C105.232 23.2756 105.538 24.7297 106.15 25.8012C106.762 26.8726 107.834 27.4084 109.211 27.4084C110.589 27.4084 111.584 26.8726 112.273 25.7246C112.885 24.6532 113.268 23.1991 113.268 21.3623V20.9797C113.268 19.2194 112.961 17.7653 112.273 16.6939C111.66 15.5459 110.589 15.0102 109.211 15.0102C107.834 15.0102 106.839 15.5459 106.15 16.6939C105.538 17.8419 105.232 19.2194 105.232 20.9797V21.4389Z" fill="url(#paint1_linear_1_149)"/>
<path d="M133.778 28.7093C133.166 29.6277 132.401 30.3164 131.559 30.7756C130.717 31.2348 129.722 31.4644 128.651 31.4644C126.202 31.4644 124.288 30.546 122.987 28.7858C121.61 27.0256 120.997 24.6531 120.997 21.7449V21.3622C120.997 18.2244 121.686 15.6988 123.064 13.7855C124.441 11.8722 126.355 10.8773 128.804 10.8773C129.799 10.8773 130.717 11.1069 131.482 11.4896C132.248 11.9488 132.936 12.561 133.549 13.3263V6.20887L130.717 5.67314V2.4588H133.549H138.906V27.2552L141.431 27.7909V31.0052H134.237L133.778 28.7093ZM126.278 21.7449C126.278 23.5051 126.584 24.8061 127.12 25.8011C127.732 26.796 128.651 27.2552 129.952 27.2552C130.717 27.2552 131.406 27.1021 132.018 26.796C132.554 26.4898 133.089 26.0307 133.396 25.4184V16.9999C133.013 16.3876 132.554 15.8519 132.018 15.5458C131.482 15.1631 130.794 15.01 130.028 15.01C128.727 15.01 127.732 15.6223 127.197 16.7703C126.584 17.9183 126.278 19.4489 126.278 21.2857V21.7449Z" fill="url(#paint2_linear_1_149)"/>
<path d="M152.529 31.5411C149.697 31.5411 147.401 30.6227 145.717 28.7859C144.033 26.9492 143.192 24.6532 143.192 21.8215V21.0562C143.192 18.148 144.033 15.699 145.641 13.7857C147.248 11.8724 149.391 10.954 152.146 10.954C154.825 10.954 156.891 11.7958 158.345 13.403C159.799 15.0102 160.564 17.2296 160.564 19.9082V22.8164H148.702V22.893C148.778 24.194 149.238 25.2655 150.003 26.1073C150.768 26.9492 151.84 27.4084 153.141 27.4084C154.289 27.4084 155.284 27.2553 156.126 27.0257C156.891 26.7961 157.733 26.4134 158.651 25.8777L160.105 29.1686C159.263 29.7808 158.192 30.3931 156.891 30.7758C155.59 31.3115 154.136 31.5411 152.529 31.5411ZM152.069 15.0867C151.074 15.0867 150.309 15.4694 149.697 16.2347C149.161 17 148.778 17.9949 148.625 19.2194L148.702 19.296H155.284V18.8368C155.284 17.6888 155.054 16.7704 154.518 16.0816C153.906 15.3928 153.141 15.0867 152.069 15.0867Z" fill="url(#paint3_linear_1_149)"/>
<path d="M184.748 4.44867C187.81 4.44867 190.182 5.21398 191.943 6.82116C193.703 8.35179 194.621 10.4182 194.621 12.9437C194.621 15.4693 193.703 17.5356 191.943 19.0663C190.182 20.5969 187.733 21.3622 184.748 21.3622H180.233V27.2552L183.065 27.7909V31.0053H172.044V27.7909L174.876 27.2552V8.1222L172.044 7.58647V4.37213H174.876H184.748V4.44867ZM180.233 17.306H184.748C186.203 17.306 187.351 16.9234 188.116 16.0815C188.881 15.2397 189.264 14.2448 189.264 12.9437C189.264 11.6427 188.881 10.5712 188.116 9.72937C187.351 8.88752 186.203 8.50486 184.748 8.50486H180.233V17.306Z" fill="url(#paint4_linear_1_149)"/>
<path d="M196.841 27.9439L199.366 27.4082V15.0865L196.535 14.5508V11.3365H204.341L204.57 14.2447C205.03 13.2498 205.642 12.4079 206.331 11.8722C207.096 11.3365 207.938 11.0303 208.856 11.0303C209.162 11.0303 209.468 11.0303 209.775 11.1069C210.081 11.1834 210.31 11.1834 210.54 11.2599L210.004 16.158L207.785 16.0814C207.019 16.0814 206.331 16.2345 205.871 16.5406C205.336 16.8468 204.953 17.306 204.723 17.8417V27.4847L207.249 28.0204V31.2348H196.764V27.9439H196.841Z" fill="url(#paint5_linear_1_149)"/>
<path d="M211.917 21.0562C211.917 18.0715 212.759 15.699 214.367 13.7857C216.05 11.8724 218.27 10.954 221.254 10.954C224.163 10.954 226.459 11.8724 228.142 13.7857C229.826 15.699 230.591 18.0715 230.591 21.0562V21.4389C230.591 24.4236 229.749 26.8726 228.142 28.7094C226.459 30.5462 224.239 31.5411 221.331 31.5411C218.423 31.5411 216.127 30.6227 214.443 28.7094C212.759 26.8726 211.994 24.4236 211.994 21.4389V21.0562H211.917ZM217.198 21.4389C217.198 23.2756 217.504 24.7297 218.117 25.8012C218.729 26.8726 219.8 27.4084 221.178 27.4084C222.555 27.4084 223.55 26.8726 224.239 25.7246C224.851 24.6532 225.234 23.1991 225.234 21.3623V20.9797C225.234 19.2194 224.928 17.7653 224.239 16.6939C223.627 15.5459 222.555 15.0102 221.178 15.0102C219.8 15.0102 218.805 15.5459 218.117 16.6939C217.504 17.8419 217.198 19.2194 217.198 20.9797V21.4389Z" fill="url(#paint6_linear_1_149)"/>
<path d="M249.035 18.1479H245.439L244.903 15.6989C244.52 15.3928 244.061 15.1632 243.525 14.9336C242.989 14.704 242.377 14.6274 241.688 14.6274C240.77 14.6274 240.005 14.857 239.469 15.2397C238.933 15.6989 238.627 16.1581 238.627 16.8469C238.627 17.4591 238.857 17.9183 239.392 18.301C239.928 18.6836 241 19.0663 242.53 19.3724C244.979 19.8316 246.816 20.5969 247.964 21.5153C249.112 22.4337 249.724 23.7348 249.724 25.4185C249.724 27.1787 248.959 28.6328 247.428 29.7808C245.898 30.9288 243.908 31.4645 241.382 31.4645C239.852 31.4645 238.474 31.2349 237.173 30.7757C235.872 30.3165 234.801 29.7043 233.806 28.8624L233.729 24.4235H237.479L238.244 27.0256C238.551 27.3318 239.01 27.4848 239.546 27.6379C240.081 27.7909 240.694 27.8675 241.229 27.8675C242.301 27.8675 243.143 27.6379 243.678 27.2552C244.214 26.8726 244.52 26.3368 244.52 25.6481C244.52 25.0358 244.214 24.5766 243.678 24.1174C243.143 23.6582 242.071 23.2756 240.54 22.9694C238.244 22.5102 236.484 21.8215 235.26 20.8265C234.035 19.9082 233.5 18.6071 233.5 16.9999C233.5 15.3162 234.188 13.9387 235.566 12.7141C236.943 11.4896 238.857 10.8774 241.382 10.8774C242.913 10.8774 244.367 11.107 245.745 11.4896C247.122 11.8723 248.194 12.408 248.959 13.0968L249.035 18.1479Z" fill="url(#paint7_linear_1_149)"/>
<path d="M49.1339 1.15792L48.6747 0.698727C47.7564 -0.219657 46.2257 -0.219656 45.2308 0.622196C39.9501 5.21411 21.8886 21.2858 17.8324 25.1124C16.3783 26.4135 15.0007 27.638 13.5466 28.939C12.3986 29.9339 12.3221 31.7707 13.47 32.8422L13.9292 33.3013C14.8476 34.2197 16.3783 34.2197 17.3732 33.3779C17.4497 33.3779 17.4497 33.3013 17.5262 33.3013C18.3681 32.536 19.363 31.6942 20.4344 30.6993C24.7202 27.0257 42.3991 11.1836 46.5318 7.35701C47.3737 6.59169 48.2156 5.82637 49.0574 5.06105C50.2054 4.06613 50.2054 2.22936 49.1339 1.15792Z" fill="url(#paint8_linear_1_149)"/>
<path d="M60.3842 12.561C58.3943 10.5712 56.4045 8.58134 54.4147 6.66804C53.3432 5.67312 51.6595 5.67312 50.6646 6.74457C49.6697 7.73949 49.6697 9.42319 50.6646 10.4181C52.5779 12.3314 54.4147 14.1682 56.328 16.0815C57.1698 16.9233 57.1698 18.3774 56.328 19.2193C53.4963 22.051 50.6646 24.8827 47.8329 27.7143C46.6084 28.9388 45.9962 28.8623 44.6951 27.7143C42.2461 25.4184 39.7205 23.1989 37.1184 20.7499C36.1235 19.8315 34.5929 19.9081 33.6745 20.903C32.9092 21.8214 32.9092 23.1989 33.751 24.0408C36.4297 26.7194 39.0317 29.3215 41.7104 32.0001C44.0063 34.2961 48.6748 34.2961 51.2003 31.694C54.1851 28.6327 57.2464 25.648 60.2311 22.5867C63.2924 19.6019 63.3689 15.6223 60.3842 12.561Z" fill="url(#paint9_linear_1_149)"/>
<path d="M2.21979 21.2092C4.20962 23.199 6.19945 25.1889 8.18928 27.1022C9.26073 28.0971 10.9444 28.0971 11.9393 27.0256C12.9343 26.0307 12.9343 24.347 11.9393 23.3521C10.026 21.4388 8.11275 19.602 6.27598 17.6887C5.43413 16.8469 5.43413 15.3928 6.27598 14.5509C9.10767 11.7192 11.9393 8.88757 14.771 5.97935C15.9955 4.75484 16.6078 4.83137 17.9088 5.97935C20.3579 8.27531 22.8834 10.4947 25.562 12.9438C26.557 13.8621 28.0876 13.7856 29.006 12.7907C29.7713 11.8723 29.7713 10.4947 28.9294 9.65289C26.2508 6.97427 23.5722 4.37218 20.8936 1.77009C18.5976 -0.525865 13.9292 -0.525867 11.4036 2.07622C8.41888 5.1375 5.3576 8.12225 2.37285 11.1835C-0.764961 14.1683 -0.764961 18.2245 2.21979 21.2092Z" fill="url(#paint10_linear_1_149)"/>
<defs>
<linearGradient id="paint0_linear_1_149" x1="77.1435" y1="9.28157" x2="165.538" y2="79.8696" gradientUnits="userSpaceOnUse">
<stop stop-color="#6161AB"/>
<stop offset="1" stop-color="#2EB7E5"/>
</linearGradient>
<linearGradient id="paint1_linear_1_149" x1="83.7986" y1="0.947653" x2="172.193" y2="71.5358" gradientUnits="userSpaceOnUse">
<stop stop-color="#6161AB"/>
<stop offset="1" stop-color="#2EB7E5"/>
</linearGradient>
<linearGradient id="paint2_linear_1_149" x1="94.869" y1="-12.9151" x2="183.263" y2="57.673" gradientUnits="userSpaceOnUse">
<stop stop-color="#6161AB"/>
<stop offset="1" stop-color="#2EB7E5"/>
</linearGradient>
<linearGradient id="paint3_linear_1_149" x1="100.54" y1="-20.017" x2="188.935" y2="50.5714" gradientUnits="userSpaceOnUse">
<stop stop-color="#6161AB"/>
<stop offset="1" stop-color="#2EB7E5"/>
</linearGradient>
<linearGradient id="paint4_linear_1_149" x1="113.269" y1="-35.9564" x2="201.663" y2="34.6317" gradientUnits="userSpaceOnUse">
<stop stop-color="#6161AB"/>
<stop offset="1" stop-color="#2EB7E5"/>
</linearGradient>
<linearGradient id="paint5_linear_1_149" x1="120.664" y1="-45.2178" x2="209.059" y2="25.3705" gradientUnits="userSpaceOnUse">
<stop stop-color="#6161AB"/>
<stop offset="1" stop-color="#2EB7E5"/>
</linearGradient>
<linearGradient id="paint6_linear_1_149" x1="127.424" y1="-53.681" x2="215.818" y2="16.9069" gradientUnits="userSpaceOnUse">
<stop stop-color="#6161AB"/>
<stop offset="1" stop-color="#2EB7E5"/>
</linearGradient>
<linearGradient id="paint7_linear_1_149" x1="135.37" y1="-63.6329" x2="223.764" y2="6.95513" gradientUnits="userSpaceOnUse">
<stop stop-color="#6161AB"/>
<stop offset="1" stop-color="#2EB7E5"/>
</linearGradient>
<linearGradient id="paint8_linear_1_149" x1="36.41" y1="-3.90429" x2="28.4928" y2="28.5065" gradientUnits="userSpaceOnUse">
<stop stop-color="#6161AB"/>
<stop offset="1" stop-color="#2EB7E5"/>
</linearGradient>
<linearGradient id="paint9_linear_1_149" x1="52.7298" y1="0.349865" x2="44.9683" y2="32.1234" gradientUnits="userSpaceOnUse">
<stop stop-color="#6161AB"/>
<stop offset="1" stop-color="#2EB7E5"/>
</linearGradient>
<linearGradient id="paint10_linear_1_149" x1="19.886" y1="-7.67288" x2="12.1245" y2="24.1006" gradientUnits="userSpaceOnUse">
<stop stop-color="#6161AB"/>
<stop offset="1" stop-color="#2EB7E5"/>
</linearGradient>
</defs>
</svg>
