<svg width="203" height="29" viewBox="0 0 203 29" fill="none" xmlns="http://www.w3.org/2000/svg">
<mask id="mask0_1_253" style="mask-type:luminance" maskUnits="userSpaceOnUse" x="0" y="0" width="203" height="29">
<path d="M202.736 0.5H0.73584V28.5H202.736V0.5Z" fill="white"/>
</mask>
<g mask="url(#mask0_1_253)">
<path d="M59.3496 0.507469L55.802 8.60348L47.8852 26.6477H46.638L37.4964 6.4301L37.1901 5.88489C37.0408 5.55627 36.8839 5.12309 36.6599 4.61522C36.518 4.22685 36.3387 3.84595 36.1296 3.48746L34.7927 0.507469H38.766L41.1112 5.48159L48.7516 22.4653L54.8759 8.34208C55.2568 7.50559 55.5555 6.74379 55.7871 6.08655L58.1023 0.5H59.3496V0.507469Z" fill="#969696"/>
<path d="M15.7851 15.9526H0.73584V18.3277H15.7851V15.9526Z" fill="#969696"/>
<path d="M5.48584 26.6478L9.04091 18.5518L16.9502 0.507568H18.1974L27.354 20.7327L27.6602 21.2779C27.8096 21.6065 27.9664 22.0397 28.1905 22.5475C28.3324 22.9359 28.5042 23.3168 28.7208 23.6753L30.0502 26.6478H26.0769L23.7317 21.6737L16.0763 4.69001L9.95209 18.8132C9.57866 19.6497 9.27244 20.4115 9.04091 21.0613L6.7331 26.6478H5.48584Z" fill="#969696"/>
<path d="M119.159 15.9526H104.11V18.3277H119.159V15.9526Z" fill="#969696"/>
<path d="M93.4143 26.6478L96.9171 18.5518L104.692 0.507568H105.917L114.924 20.7327L115.223 21.2779C115.372 21.6065 115.522 22.0397 115.746 22.5475C115.88 22.9359 116.059 23.3168 116.269 23.6753L117.576 26.6478H113.669L111.362 21.6737L103.841 4.68254L97.8133 18.8057C97.4399 19.6422 97.1411 20.404 96.9171 21.0538L94.6541 26.6404H93.4217L93.4143 26.6478Z" fill="#969696"/>
<path d="M78.8803 25.7441H87.0062V26.6478H71.6282V0.507568H87.0734V1.3814H75.4148V12.4574H83.0627V13.3686H75.4148V25.7516H78.8803V25.7441Z" fill="#969696"/>
<path d="M132.266 4.53303C132.266 4.18947 132.229 3.88325 132.162 3.64426C132.095 3.28576 131.975 3.0617 131.818 2.96461C131.699 2.86752 131.542 2.83017 131.4 2.86752C131.139 2.93474 131.012 3.19614 130.915 3.4426L125.41 17.9542L125.388 18.0289C125.388 18.0289 125.358 18.1334 125.328 18.2529C125.276 18.4247 125.231 18.6189 125.171 18.8728L125.074 19.5375C125.052 19.7765 125.067 19.9632 125.104 20.1201C125.126 20.2097 125.149 20.3143 125.208 20.4711C125.268 20.5906 125.343 20.7026 125.418 20.8072L125.477 20.867C125.604 20.9715 125.739 21.0387 125.896 21.0686C125.933 21.0686 125.97 21.0761 126.008 21.0761C126.164 21.0761 126.329 21.0238 126.501 20.9192L126.635 20.8371L126.665 20.6877C126.956 19.3732 127.307 18.0662 127.725 16.7965C128.144 15.5045 128.599 14.2124 129.062 12.9651C129.548 11.6805 130.056 10.4109 130.571 9.17852C131.109 7.90885 131.632 6.65412 132.162 5.38445C132.244 5.16039 132.281 4.88405 132.281 4.54049L132.266 4.53303Z" fill="#969696"/>
<path d="M142.715 9.96283C142.274 9.97777 141.766 10.0973 141.221 10.3064C140.683 10.4931 140.101 10.762 139.481 11.0981C138.891 11.4267 138.316 11.7702 137.756 12.1213C137.218 12.4723 136.71 12.8084 136.232 13.137C136.06 13.2565 135.903 13.3685 135.754 13.4656V13.4507C135.889 13.1445 136.008 12.8457 136.105 12.5545C136.217 12.2109 136.262 11.8823 136.247 11.5985C136.247 11.1877 136.023 10.8292 135.567 10.523L135.388 10.4035L135.194 10.5006C135.074 10.5603 134.97 10.6499 134.574 11.3371C134.328 11.7702 134.044 12.3005 133.715 12.9279C133.394 13.5403 133.043 14.1976 132.662 14.9071L131.661 16.8863C131.37 17.4912 131.116 17.9991 130.907 18.4099C130.631 18.97 130.526 19.1866 130.646 19.3733C130.817 19.8065 131.198 20.0007 131.684 19.8663C132.02 19.7542 132.408 19.5152 132.871 19.1343C133.319 18.7609 133.82 18.2978 134.357 17.7526L136.038 16.0498C136.62 15.4598 137.233 14.8623 137.853 14.2797C138.473 13.6972 139.078 13.1968 139.653 12.771C140.213 12.3453 140.736 12.0316 141.221 11.83C141.587 11.6806 141.908 11.6358 142.192 11.6881C142.274 12.0466 142.289 12.4125 142.229 12.7785C142.155 13.2341 142.02 13.7046 141.834 14.1826C141.647 14.6606 141.415 15.161 141.139 15.6838C140.878 16.1992 140.624 16.722 140.377 17.2597C140.146 17.7825 139.951 18.3352 139.795 18.9028C139.653 19.4704 139.608 20.053 139.66 20.6281L139.698 20.755C139.735 20.8372 139.802 20.9119 140.004 21.121C140.153 21.2554 140.31 21.3077 140.444 21.3077C140.609 21.3077 140.758 21.2255 140.855 21.1285C140.99 20.9866 141.102 20.7998 141.191 20.5608C141.259 20.3442 141.318 20.1277 141.348 19.9111C141.385 19.687 141.408 19.4928 141.423 19.3509C141.453 19.1791 141.475 19.0671 141.475 19.0596L141.819 18.2456C142.013 17.7974 142.214 17.3344 142.424 16.8415C142.655 16.3261 142.857 15.8556 143.036 15.4299C143.23 14.9818 143.357 14.7054 143.402 14.5859C143.858 13.503 144.112 12.6739 144.179 12.0466C144.276 11.3296 144.194 10.8143 143.94 10.4632C143.753 10.2093 143.38 9.91802 142.7 9.94043L142.715 9.96283Z" fill="#969696"/>
<path d="M153.895 15.0117C153.619 14.5337 153.014 14.1229 152.051 13.7644C151.177 13.4283 149.87 13.1669 148.167 12.9877C148.16 12.9877 148.152 12.9728 148.145 12.9653C148.936 12.4275 149.721 11.9496 150.49 11.5313C151.356 11.0683 152.252 10.5753 153.171 10.0525C153.589 9.82099 153.679 9.52971 153.679 9.37287C153.709 9.11147 153.619 8.87247 153.44 8.69322C153.283 8.51398 153.074 8.37207 152.827 8.28992C152.588 8.20029 152.342 8.17789 152.073 8.23017C151.7 8.31979 151.259 8.49904 150.721 8.78285C150.213 9.04425 149.691 9.35047 149.153 9.68655C148.645 10.0152 148.167 10.3438 147.726 10.6575C147.286 10.9712 146.95 11.2102 146.733 11.367C146.031 11.8525 145.65 12.2483 145.516 12.6217C145.381 13.0474 145.538 13.4358 145.941 13.6897C146.24 13.8839 146.658 14.0258 147.219 14.1379C147.741 14.235 148.279 14.3321 148.839 14.4366C149.399 14.5188 149.937 14.6159 150.46 14.7279C150.945 14.8175 151.311 14.9445 151.573 15.1237C151.782 15.2507 151.797 15.3851 151.789 15.527C151.789 15.5943 151.722 15.8557 151.087 16.4009C151.05 16.4382 150.901 16.5428 150.423 16.7892C150.034 16.9685 149.579 17.1851 149.048 17.4315C148.54 17.678 148.018 17.9394 147.458 18.2232C146.897 18.507 146.397 18.7834 145.971 19.0522C145.531 19.3211 145.202 19.5825 144.978 19.8514C144.814 20.053 144.739 20.2547 144.769 20.4563C144.784 20.5833 144.858 20.7626 145.075 20.9194C145.18 20.9941 145.321 21.0314 145.508 21.0314C145.71 21.0314 145.979 20.9866 146.33 20.897C146.867 20.7626 147.487 20.5534 148.175 20.292C148.884 20.0232 149.623 19.6945 150.378 19.3136C151.14 18.9253 151.819 18.507 152.402 18.0738C153.022 17.6183 153.492 17.1477 153.806 16.6697C154.276 15.9527 154.112 15.3702 153.888 15.0192L153.895 15.0117Z" fill="#969696"/>
<path d="M159.094 9.76856C159.206 9.8059 159.31 9.82831 159.422 9.82831C159.602 9.82831 159.781 9.76856 159.938 9.64906C160.124 9.48475 160.259 9.24575 160.319 8.98435C160.401 8.70054 160.416 8.43167 160.348 8.19268C160.274 7.89393 160.08 7.65493 159.788 7.50556C159.497 7.35619 159.124 7.36366 158.646 7.53543L158.526 7.58025L158.459 7.68481C158.377 7.80431 158.347 7.96862 158.347 8.2823C158.347 8.55117 158.369 8.73042 158.422 8.86485C158.608 9.34285 158.81 9.62666 159.101 9.76856H159.094Z" fill="#969696"/>
<path d="M155.061 21.2928C155.202 21.2928 155.329 21.2703 155.449 21.2255L155.576 21.1807L155.643 21.0612C156.539 19.4555 157.249 18.014 157.734 16.7742C158.242 15.5046 158.578 14.4813 158.728 13.727C158.922 12.8382 158.922 12.3304 158.713 12.0466C158.608 11.9047 158.459 11.8225 158.287 11.8225C158.003 11.8225 157.734 12.0316 157.353 12.547C156.98 13.0847 156.517 13.9809 155.949 15.3029C155.412 16.5726 154.799 18.3202 154.134 20.4936L154.097 20.6206L154.142 20.7401C154.254 21.0239 154.485 21.2106 154.784 21.2629C154.874 21.2778 154.971 21.2928 155.053 21.2928H155.061Z" fill="#969696"/>
<path d="M168.168 9.51476C167.705 8.90233 167.085 8.67827 166.361 8.85752C165.756 9.02183 165.121 9.39526 164.479 9.97782C163.859 10.538 163.254 11.24 162.671 12.0616C162.096 12.8607 161.611 13.6823 161.222 14.4889C160.834 15.303 160.58 16.0722 160.46 16.7593C160.326 17.551 160.46 18.1336 160.894 18.4995C161.327 18.8282 161.999 18.8282 162.947 18.4995C163.717 18.2381 164.71 17.6631 165.995 16.7593C166.062 17.2672 166.032 17.8199 165.898 18.4099C165.711 19.2315 165.397 20.068 164.957 20.9119C164.516 21.7708 163.963 22.5998 163.313 23.3915C162.686 24.1832 162.006 24.8703 161.297 25.4304C160.617 25.9981 159.938 26.4163 159.28 26.6777C158.66 26.9242 158.108 26.9615 157.63 26.7897C157.167 26.6404 156.786 26.2445 156.487 25.6022C156.158 24.9375 156.002 23.9068 156.017 22.5401V22.3011L155.8 22.1965C155.464 22.0397 155.128 22.1293 154.889 22.4206C154.702 22.6521 154.575 22.9733 154.523 23.3467C154.448 23.7127 154.441 24.1309 154.493 24.5865C154.53 25.057 154.642 25.5201 154.837 25.9458C155.016 26.4163 155.285 26.8495 155.628 27.2379C155.979 27.6486 156.442 27.9548 157.002 28.164C157.592 28.388 158.175 28.5001 158.75 28.5001C159.138 28.5001 159.519 28.4478 159.893 28.3507C160.819 28.1266 161.708 27.6785 162.544 27.0213C163.366 26.379 164.135 25.5649 164.83 24.6089C165.539 23.6529 166.174 22.5998 166.719 21.4945C167.257 20.3966 167.72 19.2539 168.078 18.0888C168.459 16.9237 168.721 15.7884 168.87 14.7204C169.019 13.6375 169.049 12.6441 168.945 11.7628C168.84 10.8292 168.579 10.0674 168.168 9.50729V9.51476ZM166.6 11.5612C166.54 11.9645 166.353 12.4798 166.047 13.1072C165.756 13.7345 165.375 14.3395 164.919 14.9146C164.486 15.4747 164.008 15.9378 163.493 16.2888C163.119 16.5428 162.776 16.6623 162.425 16.6398V15.9005C162.432 15.8108 162.44 15.7436 162.455 15.7063C162.559 15.4299 162.738 15.1162 162.985 14.7727C163.269 14.3843 163.575 14.0184 163.881 13.6748C164.217 13.3163 164.546 12.9877 164.867 12.674C165.188 12.3603 165.449 12.1213 165.636 11.9421C166.361 11.2848 166.615 11.24 166.615 11.2101C166.615 11.2326 166.644 11.3222 166.6 11.5612Z" fill="#969696"/>
<path d="M181.567 19.1045C181.402 18.8281 181.253 18.5593 181.111 18.3053C180.954 18.0141 180.917 17.8423 180.91 17.7452C180.895 17.6033 180.88 17.3419 180.865 16.9759V14.4739C180.88 14.0781 180.895 13.8017 180.91 13.6598V13.5777L180.895 13.4955C180.745 13.0549 180.491 12.6814 180.148 12.3902C179.804 12.0989 179.393 11.9196 178.93 11.8599L178.826 11.845L178.729 11.8898C178.318 12.0765 177.87 12.3528 177.407 12.6889C176.944 13.0026 176.488 13.3387 176.033 13.6897C175.584 14.0333 175.129 14.3544 174.681 14.6681C174.516 14.7801 174.352 14.8772 174.195 14.9594C174.195 14.9594 174.195 14.9444 174.203 14.937C174.404 14.5113 174.681 13.9885 175.017 13.3835C175.353 12.7785 175.734 12.1362 176.16 11.4417C176.578 10.7396 176.996 10.0674 177.399 9.42512C177.803 8.78281 178.169 8.20773 178.497 7.69986L179.214 6.57956C179.311 6.42272 179.453 6.19119 179.64 5.90738C179.834 5.60864 180.036 5.30242 180.23 4.98874C180.439 4.66759 180.641 4.36137 180.835 4.07757C181.029 3.77882 181.186 3.53982 181.298 3.35311L181.358 3.26348V2.36725L181.343 2.26268C181.253 1.95647 181.104 1.76229 180.895 1.67266C180.76 1.62038 180.544 1.58304 180.267 1.73988C179.961 1.91166 179.617 2.24028 179.214 2.74068C178.833 3.2112 178.408 3.80869 177.945 4.53315C177.504 5.24267 177.056 5.9746 176.6 6.7364C176.145 7.49074 175.696 8.24507 175.256 8.99193C174.838 9.73133 174.464 10.3662 174.135 10.9188C174.009 11.1429 173.837 11.4342 173.628 11.7852C173.433 12.1288 173.217 12.4947 172.97 12.8906C172.746 13.2864 172.507 13.6822 172.261 14.108C172.037 14.5113 171.82 14.8847 171.611 15.2357C171.417 15.5643 171.253 15.8407 171.096 16.0797C170.976 16.2963 170.902 16.4232 170.842 16.5129C170.775 16.6398 170.663 16.8639 170.506 17.1701C170.341 17.4838 170.17 17.8273 169.99 18.1933C169.826 18.5369 169.669 18.873 169.505 19.209C169.363 19.5153 169.258 19.7393 169.191 19.8663C169.146 19.9559 169.132 20.053 169.132 20.18C169.132 20.2845 169.154 20.3816 169.191 20.4638C169.408 20.9044 169.729 21.0239 169.99 21.0463C170.229 21.0463 170.476 21.0165 170.73 20.9642L170.849 20.9343L170.931 20.8447C171.058 20.6953 171.282 20.4563 171.596 20.1202L172.672 19.0373C173.06 18.6414 173.419 18.2829 173.77 17.9543L174.479 17.2373C174.524 17.1925 174.651 17.073 174.852 16.8788C175.062 16.6846 175.316 16.4531 175.592 16.1992C175.898 15.9378 176.227 15.654 176.57 15.3552C176.906 15.0639 177.22 14.81 177.519 14.5859C177.825 14.3544 178.079 14.1901 178.281 14.0706C178.393 14.0109 178.46 13.9885 178.497 13.981L178.811 14.1453C178.811 14.3021 178.818 14.5038 178.833 14.7652C178.863 15.1536 178.893 15.5718 178.908 16.0199C178.938 16.468 178.975 16.8938 179.005 17.3045C179.035 17.7078 179.065 17.9767 179.08 18.1261C179.117 18.4547 179.207 18.7983 179.356 19.1642C179.513 19.4854 179.707 19.7841 179.961 20.0754C180.222 20.3443 180.529 20.5459 180.887 20.6878C181.261 20.8148 181.656 20.8073 182.06 20.658L182.202 20.5683C182.456 20.3144 182.246 20.0306 182.052 19.7767C181.925 19.575 181.768 19.3435 181.604 19.1045H181.567Z" fill="#969696"/>
<path d="M202.516 15.0116C202.24 14.5336 201.635 14.1228 200.672 13.7643C199.798 13.4282 198.491 13.1668 196.788 12.9876C196.78 12.9876 196.773 12.9726 196.765 12.9652C197.55 12.4349 198.334 11.9494 199.111 11.5312C199.977 11.0681 200.873 10.5752 201.792 10.0524C202.218 9.82087 202.3 9.52959 202.3 9.37275C202.33 9.11135 202.24 8.87235 202.068 8.6931C201.911 8.51385 201.702 8.37195 201.448 8.28979C201.209 8.20017 200.963 8.17777 200.694 8.23005C200.321 8.31967 199.88 8.49892 199.342 8.78273C198.834 9.0516 198.312 9.35034 197.774 9.68643C197.266 10.015 196.788 10.3437 196.347 10.6574C195.907 10.971 195.57 11.21 195.354 11.3669C195.287 11.4117 195.242 11.449 195.182 11.4938L195.16 11.449C195.115 11.3893 195.063 11.3146 195.01 11.2399C194.921 11.0756 194.809 10.8739 194.562 10.8739H189.633C189.596 10.5752 189.611 10.2541 189.685 9.9329C189.812 9.4549 189.969 8.96944 190.156 8.50639C190.365 8.02092 190.581 7.53546 190.806 7.07241C191.059 6.55707 191.246 6.06414 191.343 5.61602C191.373 5.50399 191.373 5.35462 191.351 5.10068C191.328 4.86916 191.283 4.6451 191.216 4.47332C191.149 4.19698 191.03 3.98786 190.858 3.83848C190.746 3.74139 190.425 3.53974 189.969 3.83848L189.894 3.89076L189.85 3.97292C189.551 4.49572 189.259 5.09322 188.976 5.77286C188.707 6.45251 188.46 7.13216 188.236 7.7894L187.579 9.74618C187.392 10.3287 187.228 10.8217 187.086 11.2399C186.899 11.4864 186.653 11.6432 186.332 11.7179C185.943 11.815 185.525 11.8822 185.092 11.9345C184.614 11.9868 184.158 12.0839 183.763 12.2183C183.27 12.3677 182.896 12.6963 182.657 13.2042L182.59 13.3535L182.65 13.5029C182.874 14.0631 183.262 14.2572 183.568 14.3245C183.912 14.3767 184.278 14.3767 184.666 14.3245C185.032 14.2572 185.391 14.1826 185.772 14.0929C185.943 14.0481 186.093 14.0182 186.227 14.0033C186.227 14.1377 186.205 14.2796 186.167 14.4216L185.951 15.2132C185.906 15.3925 185.816 15.6987 185.689 16.1393L185.271 17.5733C185.122 18.0663 184.987 18.5442 184.86 19.0073C184.726 19.4554 184.636 19.7691 184.592 19.9334C184.562 20.023 184.547 20.15 184.547 20.3442C184.547 20.5533 184.562 20.6653 184.599 20.755C184.711 21.0612 184.89 21.2404 185.137 21.2852C185.174 21.2852 185.219 21.2927 185.256 21.2927C185.413 21.2927 185.577 21.2479 185.749 21.1433C185.876 21.0462 186.003 20.9417 186.13 20.8072C186.242 20.6728 186.317 20.5832 186.354 20.5234L186.399 20.4189C186.72 19.306 187.056 18.1783 187.422 17.0729C187.773 15.9676 188.169 14.8473 188.58 13.7718C188.684 13.5178 188.894 13.3386 189.215 13.2042C189.588 13.0399 190.006 12.9278 190.484 12.8606C190.985 12.7785 191.508 12.7411 192.045 12.7411C192.613 12.7262 193.121 12.7112 193.576 12.6888C193.786 12.6739 193.972 12.6515 194.144 12.6216C194.017 13.0473 194.166 13.4357 194.57 13.6896C194.868 13.8838 195.287 14.0257 195.847 14.1377C196.37 14.2348 196.907 14.3319 197.468 14.4365C198.028 14.5186 198.565 14.6157 199.088 14.7278C199.574 14.8174 199.94 14.9444 200.201 15.1236C200.41 15.2506 200.425 15.385 200.418 15.5269C200.418 15.5941 200.35 15.8555 199.716 16.4007C199.678 16.4381 199.529 16.5426 199.043 16.7891C198.655 16.9684 198.199 17.185 197.677 17.4314C197.169 17.6779 196.639 17.9393 196.086 18.2231C195.518 18.5069 195.018 18.7907 194.6 19.0521C194.151 19.321 193.83 19.5824 193.606 19.8513C193.442 20.0529 193.367 20.2546 193.397 20.4562C193.412 20.5832 193.487 20.7699 193.703 20.9193C193.808 20.994 193.95 21.0313 194.137 21.0313C194.338 21.0313 194.607 20.9865 194.958 20.8969C195.488 20.7624 196.116 20.5608 196.803 20.2919C197.512 20.023 198.252 19.6944 199.006 19.3135C199.768 18.9251 200.448 18.5069 201.03 18.0737C201.65 17.6181 202.121 17.1476 202.434 16.6696C202.905 15.9526 202.74 15.3701 202.516 15.019V15.0116Z" fill="#969696"/>
</g>
</svg>
