<svg width="109" height="35" viewBox="0 0 109 35" fill="none" xmlns="http://www.w3.org/2000/svg">
<g clip-path="url(#clip0_1_271)">
<mask id="mask0_1_271" style="mask-type:luminance" maskUnits="userSpaceOnUse" x="0" y="0" width="108" height="35">
<path d="M107.934 0.326904H0.871094V34.8993H107.934V0.326904Z" fill="white"/>
</mask>
<g mask="url(#mask0_1_271)">
<path d="M18.2425 28.7239C21.3433 28.7239 23.9866 27.6344 26.1764 25.4593L30.5641 29.8703C27.1364 33.2203 23.0306 34.8952 18.2466 34.8952C13.4013 34.8952 9.2872 33.2121 5.90446 29.8459C2.51764 26.4838 0.842612 22.39 0.87121 17.5684C0.87121 12.7752 2.55441 8.70171 5.92489 5.35177C9.29132 2.00186 13.3971 0.326904 18.2425 0.326904C23.0266 0.326904 27.1364 2.00186 30.5601 5.35177L26.1764 9.76276C23.9907 7.58775 21.3474 6.50229 18.2425 6.50229C15.1702 6.50229 12.5392 7.57962 10.3535 9.74246C8.16779 11.9012 7.07289 14.5274 7.07289 17.6131C7.07289 20.6987 8.16371 23.325 10.3535 25.4837C12.5392 27.6466 15.1702 28.7239 18.2425 28.7239Z" fill="#969696"/>
<path d="M55.2442 0.326904C60.061 0.326904 64.1587 2.00999 67.5414 5.37617C70.9242 8.74231 72.6155 12.8199 72.6155 17.6131C72.6155 22.4063 70.9242 26.4838 67.5414 29.85C64.1587 33.2162 60.061 34.8993 55.2442 34.8993C50.4275 34.8993 46.3299 33.2162 42.9472 29.85C39.5644 26.4838 37.873 22.39 37.873 17.5724C37.873 12.7793 39.5562 8.70576 42.9267 5.35584C46.2931 2.00186 50.3989 0.326904 55.2442 0.326904ZM47.3552 25.439C49.541 27.6303 52.168 28.7239 55.2442 28.7239C58.3165 28.7239 60.9475 27.6303 63.1332 25.439C65.319 23.2477 66.4139 20.6256 66.4139 17.5684C66.4139 14.4786 65.327 11.8646 63.1577 9.71804C60.9884 7.57149 58.3491 6.49822 55.2484 6.49822C52.1475 6.49822 49.5083 7.57149 47.339 9.71804C45.1696 11.8646 44.0829 14.4786 44.0829 17.5684C44.0788 20.6256 45.1696 23.2477 47.3552 25.439Z" fill="#969696"/>
<path d="M100.666 34.5904L91.8455 21.3616H88.1239V34.5904H81.918V0.635986H94.812C97.6757 0.635986 100.086 1.64421 102.034 3.6566C103.984 5.67305 104.96 8.12044 104.96 10.9988C104.96 13.1737 104.376 15.1292 103.211 16.8652C102.043 18.6012 100.515 19.8492 98.6231 20.6135L107.93 34.5945H100.666V34.5904ZM88.1277 15.6293H94.5545C95.7959 15.6293 96.8054 15.1617 97.5894 14.2186C98.3703 13.2794 98.7623 12.2061 98.7623 10.9988C98.7623 9.79539 98.3703 8.72213 97.5894 7.77892C96.8054 6.83982 95.7959 6.36823 94.5545 6.36823H88.1277V15.6293Z" fill="#969696"/>
</g>
</g>
<defs>
<clipPath id="clip0_1_271">
<rect width="107.333" height="35" fill="white" transform="translate(0.73584)"/>
</clipPath>
</defs>
</svg>
