<svg width="227" height="31" viewBox="0 0 227 31" fill="none" xmlns="http://www.w3.org/2000/svg">
<g clip-path="url(#clip0_1_295)">
<mask id="mask0_1_295" style="mask-type:luminance" maskUnits="userSpaceOnUse" x="0" y="0" width="226" height="31">
<path d="M225.706 0.5H0.430847V30.5H225.706V0.5Z" fill="white"/>
</mask>
<g mask="url(#mask0_1_295)">
<path d="M0.430847 15.5306C0.430847 7.20787 7.21719 0.5 15.1537 0.5C21.2331 0.5 23.9595 2.98439 24.9492 2.98439C25.1708 2.98439 25.2529 2.66142 25.2529 2.43974V2.2773C25.2578 2.22721 25.2812 2.18073 25.3184 2.14692C25.3557 2.11311 25.4042 2.09437 25.4545 2.09437C25.5048 2.09437 25.5533 2.11311 25.5906 2.14692C25.6278 2.18073 25.6512 2.22721 25.6561 2.2773V7.20786C25.6561 7.34928 25.5949 7.39897 25.4937 7.39897C25.443 7.39559 25.3942 7.37899 25.3519 7.35082C25.3097 7.32266 25.2756 7.28391 25.2529 7.23844C24.0398 5.62168 20.3237 1.35998 15.1537 1.35998C8.71126 1.35998 3.90426 7.85763 3.90426 15.521C3.90426 23.1844 8.52975 29.6419 15.0734 29.6419C17.2133 29.6419 19.0857 28.9329 20.6466 28.0252H20.6064C21.9438 27.2779 22.8093 25.8026 22.8093 25.2159V18.5405C22.8093 17.348 22.303 16.3982 21.7375 16.3982C21.4948 16.3982 21.3554 16.3581 21.3554 16.1364C21.3532 16.1073 21.3577 16.0782 21.3685 16.0512C21.3793 16.0242 21.3961 16 21.4177 15.9804C21.4392 15.9609 21.4649 15.9465 21.4929 15.9384C21.5208 15.9303 21.5503 15.9287 21.5789 15.9338H26.9018C26.9288 15.9322 26.9559 15.9362 26.9813 15.9458C27.0066 15.9554 27.0296 15.9702 27.0487 15.9894C27.0678 16.0086 27.0828 16.0316 27.0923 16.0569C27.1019 16.0823 27.106 16.1093 27.1043 16.1364C27.1043 16.2568 27.0241 16.3982 26.9018 16.3982C26.1948 16.3982 25.6503 17.1053 25.6503 18.5405V27.4691C25.6503 27.4691 22.2113 30.5 15.0677 30.5C7.13503 30.5 0.430847 23.7922 0.430847 15.5306Z" fill="#969696"/>
<path d="M48.8711 29.9133C48.7508 29.9133 48.6896 29.8541 48.6686 29.7127C48.6476 29.5713 48.7087 29.4891 48.81 29.4891L48.9915 29.5101C49.3354 29.5101 49.4978 29.1871 49.4978 28.5813C49.4978 28.2373 48.5272 25.2675 46.588 19.6508H36.4085L34.0241 26.5613C33.7222 27.4901 33.5407 27.8532 33.5407 28.5412L33.5809 29.1145C33.6 29.3763 33.7815 29.5178 34.1254 29.5178C34.156 29.5134 34.1872 29.5153 34.2171 29.5232C34.247 29.5311 34.2751 29.5448 34.2996 29.5638C34.3242 29.5826 34.3447 29.6062 34.3601 29.633C34.3755 29.6599 34.3853 29.6896 34.389 29.7203C34.389 29.8618 34.3279 29.9209 34.1865 29.9209H31.0761C30.9347 29.9209 30.8735 29.8618 30.8735 29.7203C30.8735 29.5788 30.9538 29.5178 31.1372 29.5178C31.8021 29.5178 32.551 28.4877 32.9752 27.3162L42.0428 1.0332H42.87L51.928 27.3085C52.3732 28.48 53.1203 29.5101 53.787 29.5101C53.9475 29.5101 54.0488 29.5713 54.0488 29.7127C54.0523 29.74 54.0494 29.7678 54.0404 29.7938C54.0314 29.8199 54.0166 29.8436 53.997 29.8629C53.9775 29.8823 53.9536 29.897 53.9275 29.9058C53.9014 29.9144 53.8735 29.9171 53.8463 29.9133H48.8711ZM41.4983 4.96428L36.7104 18.7833H46.3034L41.4983 4.96428Z" fill="#969696"/>
<path d="M59.6463 29.9133C59.5874 29.9133 59.5308 29.89 59.489 29.8485C59.4471 29.807 59.4233 29.7506 59.4228 29.6916C59.4228 29.4891 59.5852 29.4891 59.7877 29.4891C60.3724 29.4891 60.8577 28.5202 60.8577 27.3085V3.65135C60.8577 2.17601 60.3322 1.48994 59.6463 1.48994C59.6154 1.4928 59.5842 1.48919 59.5547 1.47931C59.5252 1.46942 59.4981 1.4535 59.4752 1.43255C59.4522 1.41159 59.4338 1.38607 59.4212 1.35761C59.4087 1.32916 59.4022 1.2984 59.4022 1.26729C59.4022 1.23619 59.4087 1.20543 59.4212 1.17698C59.4338 1.14852 59.4522 1.123 59.4752 1.10205C59.4981 1.0811 59.5252 1.06517 59.5547 1.05529C59.5842 1.04541 59.6154 1.04178 59.6463 1.04466H68.7942C73.5821 1.04466 77.4586 3.9342 77.4586 8.05638C77.4586 11.0453 75.399 13.3883 72.4109 14.4393C76.1461 15.3682 78.8934 18.5807 78.8934 22.055C78.8934 26.1562 75.036 29.9133 70.25 29.9133H59.6463ZM74.2871 8.05638C74.2871 4.42535 71.8224 1.9142 68.7922 1.9142H63.6643L63.7464 14.1775H68.7942C71.8243 14.1775 74.2871 11.6778 74.2871 8.05638ZM75.72 22.055C75.72 18.4239 73.2763 15.0452 70.2481 15.0452H63.7522V29.0457H70.2481C73.2782 29.0457 75.7219 25.6727 75.7219 22.055H75.72Z" fill="#969696"/>
<path d="M84.6009 29.9133C84.5417 29.9133 84.485 29.89 84.4434 29.8485C84.4017 29.807 84.3775 29.7506 84.3775 29.6916C84.3775 29.4891 84.54 29.4891 84.7425 29.4891C85.3267 29.4891 85.8125 28.5202 85.8125 27.3085V3.65135C85.8125 2.17601 85.2867 1.48994 84.6009 1.48994C84.57 1.4928 84.5384 1.48919 84.5092 1.47931C84.48 1.46942 84.4525 1.4535 84.4292 1.43255C84.4067 1.41159 84.3884 1.38607 84.3759 1.35761C84.3634 1.32916 84.3567 1.2984 84.3567 1.26729C84.3567 1.23619 84.3634 1.20543 84.3759 1.17698C84.3884 1.14852 84.4067 1.123 84.4292 1.10205C84.4525 1.0811 84.48 1.06517 84.5092 1.05529C84.5384 1.04541 84.57 1.04178 84.6009 1.04466H93.7484C98.5367 1.04466 102.413 3.9342 102.413 8.05638C102.413 11.0453 100.353 13.3883 97.365 14.4393C101.101 15.3682 103.848 18.5807 103.848 22.055C103.848 26.1562 99.9909 29.9133 95.2042 29.9133H84.6009ZM99.2434 8.05638C99.2434 4.42535 96.7792 1.9142 93.7484 1.9142H88.6134L88.695 14.1775H93.7425C96.7767 14.1775 99.2417 11.6778 99.2417 8.05638H99.2434ZM100.677 22.055C100.677 18.4239 98.2325 15.0452 95.2042 15.0452H88.7084V29.0457H95.2042C98.2309 29.0457 100.674 25.6727 100.674 22.055H100.677Z" fill="#969696"/>
<path d="M109.555 29.9133C109.497 29.9133 109.44 29.89 109.398 29.8485C109.356 29.807 109.333 29.7506 109.332 29.6916C109.332 29.4891 109.494 29.4891 109.697 29.4891C110.281 29.4891 110.767 28.5202 110.767 27.3085V3.65135C110.767 2.17601 110.241 1.48994 109.555 1.48994C109.524 1.4928 109.493 1.48919 109.463 1.47931C109.434 1.46942 109.407 1.4535 109.384 1.43255C109.361 1.41159 109.343 1.38607 109.33 1.35761C109.318 1.32916 109.311 1.2984 109.311 1.26729C109.311 1.23619 109.318 1.20543 109.33 1.17698C109.343 1.14852 109.361 1.123 109.384 1.10205C109.407 1.0811 109.434 1.06517 109.463 1.05529C109.493 1.04541 109.524 1.04178 109.555 1.04466H114.886C114.945 1.04516 115.002 1.06887 115.043 1.1107C115.085 1.15252 115.108 1.2091 115.109 1.26825C115.109 1.46891 114.947 1.48994 114.744 1.48994C114.138 1.48994 113.655 2.45885 113.655 3.65135V27.3085C113.655 28.7819 114.2 29.4891 114.886 29.4891C114.914 29.487 114.943 29.4906 114.969 29.4998C114.996 29.509 115.02 29.5235 115.041 29.5424C115.062 29.5613 115.078 29.5843 115.09 29.61C115.103 29.6357 115.108 29.6634 115.109 29.6916C115.108 29.7506 115.085 29.807 115.043 29.8485C115.001 29.89 114.945 29.9133 114.886 29.9133H109.555Z" fill="#969696"/>
<path d="M142.651 29.9133L123.323 4.48076V27.3085C123.323 28.7819 123.847 29.4891 124.553 29.4891C124.582 29.487 124.61 29.4906 124.637 29.4998C124.663 29.509 124.688 29.5235 124.709 29.5424C124.73 29.5613 124.747 29.5843 124.758 29.61C124.77 29.6357 124.777 29.6634 124.778 29.6916C124.777 29.7506 124.753 29.807 124.711 29.8485C124.669 29.89 124.613 29.9133 124.553 29.9133H121.243C121.183 29.9133 121.128 29.89 121.085 29.8485C121.043 29.807 121.02 29.7506 121.019 29.6916C121.019 29.4891 121.161 29.4891 121.384 29.4891C121.968 29.4891 122.454 28.5202 122.454 27.3085V3.3475L120.718 1.05421H124.191L142.651 24.9139V3.65135C142.651 2.17601 142.125 1.48994 141.439 1.48994C141.408 1.4928 141.378 1.48919 141.348 1.47931C141.318 1.46942 141.291 1.4535 141.268 1.43255C141.245 1.41159 141.227 1.38607 141.214 1.35761C141.202 1.32916 141.195 1.2984 141.195 1.26729C141.195 1.23619 141.202 1.20543 141.214 1.17698C141.227 1.14852 141.245 1.123 141.268 1.10205C141.291 1.0811 141.318 1.06517 141.348 1.05529C141.378 1.04541 141.408 1.04178 141.439 1.04466H144.75C144.809 1.04516 144.866 1.06887 144.908 1.1107C144.95 1.15252 144.973 1.2091 144.974 1.26825C144.974 1.46891 144.812 1.48994 144.609 1.48994C144.003 1.48994 143.52 2.45885 143.52 3.65135V29.9133H142.651Z" fill="#969696"/>
<path d="M150.919 29.9134C150.861 29.9129 150.805 29.8893 150.763 29.8478C150.722 29.8063 150.698 29.7503 150.698 29.6917C150.698 29.4891 150.858 29.4891 151.061 29.4891C151.648 29.4891 152.131 28.5202 152.131 27.3085V3.65138C152.131 2.17603 151.608 1.48996 150.919 1.48996C150.864 1.48482 150.812 1.45913 150.775 1.41795C150.737 1.37677 150.717 1.32304 150.717 1.26732C150.717 1.21159 150.737 1.15787 150.775 1.11669C150.812 1.07551 150.864 1.04982 150.919 1.04468H160.069C164.846 1.04468 168.733 3.93422 168.733 8.0564C168.733 11.0453 166.672 13.3883 163.684 14.4393C167.421 15.3682 170.167 18.5807 170.167 22.055C170.167 26.1562 166.309 29.9134 161.523 29.9134H150.919ZM165.562 8.0564C165.562 4.42537 163.099 1.91422 160.069 1.91422H154.939L155.019 14.1776H160.069C163.099 14.1776 165.562 11.6778 165.562 8.0564ZM166.997 22.055C166.997 18.4239 164.553 15.0452 161.523 15.0452H155.028V29.0457H161.523C164.553 29.0457 166.997 25.6727 166.997 22.055Z" fill="#969696"/>
<path d="M191.747 29.9133C191.624 29.9133 191.556 29.8541 191.544 29.7127C191.533 29.5713 191.584 29.4891 191.686 29.4891L191.877 29.5101C192.221 29.5101 192.381 29.1871 192.381 28.5813C192.381 28.2373 191.413 25.2675 189.473 19.6508H179.286L176.902 26.5613C176.6 27.4901 176.417 27.8532 176.417 28.5412L176.458 29.1145C176.478 29.3763 176.659 29.5178 177.003 29.5178C177.033 29.5134 177.064 29.5153 177.094 29.5233C177.124 29.5312 177.153 29.5449 177.177 29.5638C177.201 29.5827 177.221 29.6063 177.237 29.6332C177.252 29.66 177.261 29.6897 177.265 29.7203C177.265 29.8618 177.206 29.9209 177.073 29.9209H173.953C173.813 29.9209 173.751 29.8618 173.751 29.7203C173.751 29.5788 173.832 29.5178 174.015 29.5178C174.68 29.5178 175.427 28.4877 175.851 27.3162L184.92 1.0332H185.748L194.796 27.3162C195.241 28.4877 195.988 29.5178 196.655 29.5178C196.816 29.5178 196.917 29.5788 196.917 29.7203C196.92 29.7477 196.918 29.7754 196.908 29.8015C196.899 29.8276 196.885 29.8512 196.865 29.8706C196.846 29.89 196.822 29.9047 196.796 29.9133C196.769 29.9221 196.742 29.9247 196.714 29.9209L191.747 29.9133ZM184.374 4.96428L179.588 18.7833H189.181L184.374 4.96428Z" fill="#969696"/>
<path d="M224.558 29.9134C221.912 29.9134 221.042 29.9133 218.903 26.7619L210.863 15.0452H206.623V27.3085C206.623 28.782 207.168 29.4891 207.853 29.4891C207.882 29.487 207.91 29.4907 207.937 29.4999C207.963 29.509 207.988 29.5235 208.008 29.5424C208.029 29.5613 208.047 29.5843 208.058 29.61C208.07 29.6357 208.076 29.6634 208.077 29.6917C208.077 29.7506 208.053 29.807 208.011 29.8485C207.969 29.89 207.913 29.9134 207.853 29.9134H202.523C202.464 29.9134 202.408 29.89 202.366 29.8485C202.323 29.807 202.3 29.7506 202.299 29.6917C202.299 29.4891 202.462 29.4891 202.664 29.4891C203.249 29.4891 203.734 28.5202 203.734 27.3085V3.59022C203.734 2.15692 203.208 1.46893 202.523 1.46893C202.467 1.47012 202.413 1.45004 202.372 1.41277C202.33 1.37552 202.304 1.32385 202.299 1.26827C202.3 1.20913 202.323 1.15254 202.365 1.11072C202.408 1.06889 202.463 1.04518 202.523 1.04468H212.398C217.175 1.04468 221.063 3.93422 221.063 8.0564C221.063 11.611 218.155 14.2578 214.256 14.9038L222.778 27.3085C223.587 28.5202 224.739 29.4891 225.345 29.4891H225.486C225.514 29.4873 225.542 29.4911 225.568 29.5004C225.595 29.5097 225.619 29.5243 225.64 29.5432C225.661 29.5621 225.678 29.585 225.689 29.6105C225.701 29.636 225.707 29.6636 225.708 29.6917C225.709 29.7211 225.704 29.7505 225.693 29.7781C225.683 29.8056 225.667 29.8306 225.646 29.8514C225.625 29.8723 225.6 29.8886 225.573 29.8993C225.545 29.9098 225.516 29.9147 225.486 29.9134H224.558ZM217.892 8.0564C217.892 4.42537 215.429 1.91422 212.398 1.91422H208.789C207.598 1.91422 206.628 2.39962 206.628 3.00544V14.1776H212.404C215.429 14.1776 217.892 11.6778 217.892 8.0564Z" fill="#969696"/>
</g>
</g>
<defs>
<clipPath id="clip0_1_295">
<rect width="225.833" height="30" fill="white" transform="translate(0.430847 0.5)"/>
</clipPath>
</defs>
</svg>
