<svg width="201" height="29" viewBox="0 0 201 29" fill="none" xmlns="http://www.w3.org/2000/svg">
<g clip-path="url(#clip0_1_280)">
<path d="M128.629 22.1357C128.629 21.9037 128.818 21.7156 129.05 21.7156H199.906C200.138 21.7156 200.326 21.9037 200.326 22.1357C200.326 22.3677 200.138 22.5558 199.906 22.5558H129.05C128.818 22.5558 128.629 22.3677 128.629 22.1357Z" fill="#969696"/>
<path d="M198.659 8.04028H199.868V19.4723H198.659V14.3442H192.208V19.4723H191V8.04028H192.208V13.2337H198.659V8.04028Z" fill="#969696"/>
<path d="M177.866 8.04028H186.244V9.15082H182.667V19.4723H181.459V9.15082H177.866V8.04028Z" fill="#969696"/>
<path d="M169.634 19.4723V8.04028H170.842V18.3617H176.346V19.4723H169.634Z" fill="#969696"/>
<path d="M160.572 7.89307L164.965 19.472H163.675L162.352 15.9281H157.404L156.097 19.472H154.823L159.233 7.89307H160.572ZM159.919 9.28124H159.853L157.812 14.8339H161.976L159.919 9.28124Z" fill="#969696"/>
<path d="M143.308 8.04028H150.673V9.15082H144.516V13.1194H149.187V14.2299H144.516V18.3617H150.673V19.4723H143.308V8.04028Z" fill="#969696"/>
<path d="M136.217 8.04028H137.426V19.4723H136.217V14.3442H129.766V19.4723H128.558V8.04028H129.766V13.2337H136.217V8.04028Z" fill="#969696"/>
<path d="M117.85 26.5224C116.518 27.854 114.359 27.854 113.027 26.5224L93.7383 7.23334C92.4066 5.90171 92.4066 3.74271 93.7383 2.41108C95.0699 1.07944 97.2289 1.07944 98.5605 2.41108L117.85 21.7001C119.181 23.0317 119.181 25.1907 117.85 26.5224Z" fill="#969696"/>
<path d="M93.7117 26.5888C92.38 25.2571 92.38 23.0981 93.7117 21.7665L113.001 2.47748C114.332 1.14585 116.491 1.14585 117.823 2.47748C119.155 3.80911 119.155 5.96811 117.823 7.29974L98.5339 26.5888C97.2023 27.9204 95.0433 27.9204 93.7117 26.5888Z" fill="#969696"/>
<path d="M86.8152 18.5911C86.8152 16.9464 86.261 15.5699 85.1884 14.4258C84.0979 13.2996 82.8108 12.7276 81.3271 12.7276C79.8255 12.7276 78.5383 13.2996 77.4479 14.4258C76.3574 15.5699 75.8211 16.9464 75.8211 18.5911C75.8211 20.2357 76.3574 21.6122 77.4479 22.7384C78.5383 23.8825 79.8255 24.4367 81.3271 24.4367C82.8108 24.4367 84.0979 23.8825 85.1884 22.7384C86.261 21.6122 86.8152 20.2357 86.8152 18.5911ZM72.1743 18.5911C72.1743 16.1241 73.0681 13.9789 74.8915 12.1555C76.7149 10.3321 78.8601 9.42041 81.3271 9.42041C83.794 9.42041 85.9213 10.3321 87.7447 12.1555C89.5682 13.9789 90.4799 16.1241 90.4799 18.5911C90.4799 21.058 89.5682 23.1853 87.7447 25.0087C85.9213 26.8321 83.794 27.7438 81.3271 27.7438C78.8601 27.7438 76.7149 26.8321 74.8915 25.0087C73.0681 23.1853 72.1743 21.058 72.1743 18.5911Z" fill="#969696"/>
<path d="M56.9735 1.73364V11.6372C57.0092 11.5836 57.0986 11.5121 57.2059 11.4048C57.3131 11.2976 57.5455 11.1188 57.8852 10.8685C58.2248 10.6183 58.6002 10.4038 58.9935 10.2071C59.3868 10.0105 59.8695 9.8317 60.4773 9.67081C61.0672 9.50992 61.675 9.43842 62.2828 9.43842C64.3922 9.43842 66.1262 10.1356 67.4491 11.53C68.772 12.9243 69.4334 14.7835 69.4334 17.1432V27.3864H65.7687V17.1432C65.7687 15.874 65.3575 14.8192 64.5531 13.9791C63.7487 13.1567 62.7476 12.7277 61.5498 12.7277C60.1555 12.7277 59.0293 13.1925 58.2069 14.0863C57.3846 14.9801 56.9735 16.2494 56.9735 17.8583V27.3686H53.3267V1.73364H56.9735Z" fill="#969696"/>
<path d="M30.8145 1.73364L41.0578 1.75152C43.489 1.75152 45.5448 2.53809 47.1894 4.14697C48.8341 5.75586 49.6743 7.7044 49.6743 9.99259C49.6743 12.2808 48.8341 14.2293 47.1894 15.8203C45.5448 17.4292 43.489 18.2158 41.0578 18.2158H34.8368V27.3686H30.8145V1.73364ZM41.0578 5.4162L34.8368 5.39833V14.5511H41.0578C42.3091 14.5511 43.3996 14.1221 44.2934 13.2461C45.1873 12.3702 45.6342 11.2797 45.6342 9.99259C45.6342 8.70548 45.1873 7.61501 44.2934 6.73907C43.3996 5.84524 42.3091 5.4162 41.0578 5.4162Z" fill="#969696"/>
<path d="M25.4995 9.79598V27.3686H21.8348V9.79598H25.4995ZM25.8749 4.30789C25.8749 4.95144 25.6604 5.46986 25.2492 5.88102C24.8202 6.31006 24.3018 6.5067 23.6761 6.5067C23.0325 6.5067 22.5141 6.31006 22.103 5.88102C21.6739 5.46986 21.4773 4.95144 21.4773 4.30789C21.4773 3.68221 21.6739 3.16379 22.103 2.75263C22.5141 2.32359 23.0325 2.12695 23.6761 2.12695C24.3018 2.12695 24.8202 2.32359 25.2492 2.75263C25.6604 3.16379 25.8749 3.68221 25.8749 4.30789Z" fill="#969696"/>
<path d="M14.7142 20.0393C14.7142 19.2527 14.464 18.6092 13.9634 18.0729C13.4629 17.5366 12.8014 17.1254 12.0149 16.8215C11.2283 16.5176 10.3524 16.2495 9.38704 15.9992C8.42171 15.7489 7.45638 15.445 6.49105 15.0875C5.52572 14.73 4.63189 14.3009 3.84532 13.8004C3.05876 13.2999 2.4152 12.6027 1.91466 11.6731C1.41412 10.7435 1.16385 9.63517 1.16385 8.33018C1.16385 6.36377 1.91466 4.70125 3.43416 3.37839C4.93579 2.05553 6.99159 1.37622 9.58368 1.37622C10.5311 1.37622 11.4428 1.50136 12.3188 1.73375C13.1947 1.96615 13.9277 2.23429 14.4997 2.55607C15.0718 2.87785 15.5902 3.18175 16.0192 3.50353C16.4483 3.8253 16.77 4.09345 16.9845 4.30797L17.2706 4.6655L14.7142 7.23972C14.6606 7.20396 14.5891 7.11458 14.4997 7.00732C14.4103 6.90006 14.2137 6.7213 13.8919 6.47103C13.5701 6.22075 13.2305 6.00624 12.873 5.80959C12.5154 5.61295 12.0328 5.43419 11.4428 5.2733C10.8529 5.13029 10.2272 5.04091 9.58368 5.04091C8.26082 5.04091 7.18823 5.38056 6.38379 6.02411C5.57934 6.68554 5.18606 7.45423 5.18606 8.33018C5.18606 9.11675 5.43633 9.77818 5.93687 10.3145C6.43742 10.8508 7.08097 11.2798 7.86754 11.5837C8.6541 11.8876 9.54793 12.1558 10.5133 12.406C11.4786 12.6563 12.4439 12.9423 13.4092 13.2999C14.3746 13.6574 15.2505 14.0864 16.0371 14.587C16.8237 15.0875 17.4851 15.8026 17.9856 16.7321C18.4862 17.6617 18.7364 18.7701 18.7364 20.0572C18.7364 22.3096 17.9141 24.1688 16.3052 25.5989C14.6785 27.029 12.4439 27.7441 9.58368 27.7441C8.40383 27.7441 7.29549 27.6011 6.24078 27.315C5.18606 27.029 4.32799 26.7072 3.64868 26.314C2.96937 25.9207 2.37945 25.5274 1.87891 25.1341C1.37836 24.7408 1.00296 24.419 0.788438 24.1509L0.430908 23.704L2.98725 21.1476C3.023 21.2191 3.11239 21.3264 3.21965 21.4694C3.3269 21.6124 3.59505 21.8448 3.98834 22.1845C4.38162 22.5241 4.82853 22.828 5.29332 23.0783C5.75811 23.3286 6.36591 23.561 7.1346 23.7755C7.90329 23.99 8.72561 24.0794 9.58368 24.0794C11.1568 24.0794 12.4082 23.704 13.3377 22.9174C14.2494 22.1487 14.7142 21.1834 14.7142 20.0393Z" fill="#969696"/>
</g>
<defs>
<clipPath id="clip0_1_280">
<rect width="200" height="29" fill="white" transform="translate(0.430908)"/>
</clipPath>
</defs>
</svg>
