<svg width="107" height="21" viewBox="0 0 107 21" fill="none" xmlns="http://www.w3.org/2000/svg">
<g clip-path="url(#clip0_77_358)">
<path d="M90.0014 20.2891V6.7951H85.5163V20.2891H90.0014ZM87.7595 4.95162C89.3235 4.95162 90.297 3.91544 90.297 2.62056C90.2679 1.29648 89.3236 0.289062 87.7891 0.289062C86.255 0.289062 85.2517 1.2965 85.2517 2.62056C85.2517 3.9155 86.225 4.95162 87.7302 4.95162H87.7593H87.7595ZM92.4839 20.2891H96.9691V12.7534C96.9691 12.3501 96.9982 11.9472 97.1166 11.6589C97.4409 10.8531 98.1789 10.0186 99.4178 10.0186C101.041 10.0186 101.69 11.256 101.69 13.07V20.289H106.175V12.5517C106.175 8.40684 103.962 6.4783 101.011 6.4783C98.5917 6.4783 97.5294 7.83074 96.9392 8.75188H96.9692V6.79482H92.484C92.5429 8.06102 92.484 20.2888 92.484 20.2888L92.4839 20.2891Z" fill="#586470"/>
</g>
<g clip-path="url(#clip1_77_358)">
<path d="M49.25 0.289062C46.5363 0.289062 46.195 0.301563 45.1287 0.349063C44.0625 0.399062 43.3362 0.566562 42.7 0.814062C42.0323 1.06447 41.4277 1.45831 40.9288 1.96781C40.4192 2.46674 40.0254 3.07137 39.775 3.73906C39.5275 4.37406 39.3588 5.10156 39.31 6.16406C39.2625 7.23281 39.25 7.57281 39.25 10.2903C39.25 13.0053 39.2625 13.3453 39.31 14.4116C39.36 15.4766 39.5275 16.2028 39.775 16.8391C40.0312 17.4966 40.3725 18.0541 40.9288 18.6103C41.4838 19.1666 42.0412 19.5091 42.6988 19.7641C43.3363 20.0116 44.0613 20.1803 45.1263 20.2291C46.1938 20.2766 46.5338 20.2891 49.25 20.2891C51.9663 20.2891 52.305 20.2766 53.3725 20.2291C54.4363 20.1791 55.165 20.0116 55.8013 19.7641C56.4685 19.5135 57.0727 19.1197 57.5712 18.6103C58.1275 18.0541 58.4688 17.4966 58.725 16.8391C58.9713 16.2028 59.14 15.4766 59.19 14.4116C59.2375 13.3453 59.25 13.0053 59.25 10.2891C59.25 7.57281 59.2375 7.23281 59.19 6.16531C59.14 5.10156 58.9713 4.37406 58.725 3.73906C58.4746 3.07137 58.0808 2.46674 57.5712 1.96781C57.0723 1.45831 56.4677 1.06447 55.8 0.814062C55.1625 0.566562 54.435 0.397813 53.3713 0.349063C52.3038 0.301563 51.965 0.289062 49.2475 0.289062H49.25ZM48.3538 2.09156H49.2513C51.9213 2.09156 52.2375 2.10031 53.2913 2.14906C54.2662 2.19281 54.7962 2.35656 55.1488 2.49281C55.615 2.67406 55.9487 2.89156 56.2987 3.24156C56.6488 3.59156 56.865 3.92406 57.0463 4.39156C57.1838 4.74281 57.3463 5.27281 57.39 6.24781C57.4387 7.30156 57.4487 7.61781 57.4487 10.2866C57.4487 12.9553 57.4387 13.2728 57.39 14.3266C57.3463 15.3016 57.1825 15.8303 57.0463 16.1828C56.8848 16.6164 56.6291 17.0088 56.2975 17.3316C55.9475 17.6816 55.615 17.8978 55.1475 18.0791C54.7975 18.2166 54.2675 18.3791 53.2913 18.4241C52.2375 18.4716 51.9213 18.4828 49.2513 18.4828C46.5813 18.4828 46.2638 18.4716 45.21 18.4241C44.235 18.3791 43.7063 18.2166 43.3538 18.0791C42.9198 17.9181 42.527 17.6628 42.2037 17.3316C41.8716 17.0086 41.6154 16.6158 41.4538 16.1816C41.3175 15.8303 41.1538 15.3003 41.11 14.3253C41.0625 13.2716 41.0525 12.9553 41.0525 10.2841C41.0525 7.61281 41.0625 7.29906 41.11 6.24531C41.155 5.27031 41.3175 4.74031 41.455 4.38781C41.6363 3.92156 41.8537 3.58781 42.2037 3.23781C42.5537 2.88781 42.8863 2.67156 43.3538 2.49031C43.7063 2.35281 44.235 2.19031 45.21 2.14531C46.1325 2.10281 46.49 2.09031 48.3538 2.08906V2.09156ZM54.5887 3.75156C54.4312 3.75156 54.2751 3.7826 54.1295 3.84291C53.9839 3.90321 53.8517 3.9916 53.7402 4.10303C53.6288 4.21446 53.5404 4.34675 53.4801 4.49234C53.4198 4.63793 53.3888 4.79398 53.3888 4.95156C53.3888 5.10915 53.4198 5.26519 53.4801 5.41078C53.5404 5.55637 53.6288 5.68866 53.7402 5.80009C53.8517 5.91152 53.9839 5.99991 54.1295 6.06022C54.2751 6.12052 54.4312 6.15156 54.5887 6.15156C54.907 6.15156 55.2122 6.02513 55.4373 5.80009C55.6623 5.57505 55.7887 5.26982 55.7887 4.95156C55.7887 4.6333 55.6623 4.32808 55.4373 4.10303C55.2122 3.87799 54.907 3.75156 54.5887 3.75156ZM49.2513 5.15406C48.5701 5.14344 47.8936 5.26842 47.2612 5.52174C46.6288 5.77506 46.0531 6.15165 45.5677 6.62959C45.0822 7.10753 44.6967 7.67727 44.4336 8.30564C44.1704 8.934 44.0349 9.60844 44.0349 10.2897C44.0349 10.9709 44.1704 11.6454 44.4336 12.2737C44.6967 12.9021 45.0822 13.4718 45.5677 13.9498C46.0531 14.4277 46.6288 14.8043 47.2612 15.0576C47.8936 15.311 48.5701 15.4359 49.2513 15.4253C50.5994 15.4043 51.8853 14.854 52.8312 13.8931C53.7772 12.9323 54.3074 11.638 54.3074 10.2897C54.3074 8.94135 53.7772 7.64708 52.8312 6.68625C51.8853 5.72542 50.5994 5.1751 49.2513 5.15406ZM49.2513 6.95531C49.689 6.95531 50.1226 7.04154 50.527 7.20908C50.9315 7.37662 51.299 7.62218 51.6086 7.93175C51.9181 8.24131 52.1637 8.60882 52.3312 9.01329C52.4988 9.41776 52.585 9.85127 52.585 10.2891C52.585 10.7269 52.4988 11.1604 52.3312 11.5648C52.1637 11.9693 51.9181 12.3368 51.6086 12.6464C51.299 12.9559 50.9315 13.2015 50.527 13.369C50.1226 13.5366 49.689 13.6228 49.2513 13.6228C48.3671 13.6228 47.5191 13.2716 46.8939 12.6464C46.2687 12.0212 45.9175 11.1732 45.9175 10.2891C45.9175 9.4049 46.2687 8.55694 46.8939 7.93175C47.5191 7.30655 48.3671 6.95531 49.2513 6.95531Z" fill="#586470"/>
</g>
<path d="M8.75 12.0964H11.875L13.125 7.97524H8.75V5.91465C8.75 4.85345 8.75 3.85407 11.25 3.85407H13.125V0.392288C12.7175 0.347985 11.1787 0.248047 9.55375 0.248047C6.16 0.248047 3.75 1.95524 3.75 5.09042V7.97524H0V12.0964H3.75V20.8539H8.75V12.0964Z" fill="#586470"/>
<defs>
<clipPath id="clip0_77_358">
<rect width="20.9267" height="20" fill="white" transform="translate(85.25 0.289062)"/>
</clipPath>
<clipPath id="clip1_77_358">
<rect width="20" height="20" fill="white" transform="translate(39.25 0.289062)"/>
</clipPath>
</defs>
</svg>
